<?xml version="1.0" encoding="UTF-8" standalone="no"?>
<!-- Created with Inkscape (http://www.inkscape.org/) -->

<svg
   id="svg5"
   version="1.1"
   viewBox="0 0 120.81133 149.21927"
   height="563.97833"
   width="456.60974"
   sodipodi:docname="main-gears.svg"
   inkscape:version="1.1.1 (3bf5ae0, 2021-09-20)"
   xmlns:inkscape="http://www.inkscape.org/namespaces/inkscape"
   xmlns:sodipodi="http://sodipodi.sourceforge.net/DTD/sodipodi-0.dtd"
   xmlns="http://www.w3.org/2000/svg"
   xmlns:svg="http://www.w3.org/2000/svg">
  <sodipodi:namedview
     id="namedview7"
     pagecolor="#ffffff"
     bordercolor="#000000"
     borderopacity="1"
     inkscape:pageshadow="0"
     inkscape:pageopacity="1"
     inkscape:pagecheckerboard="false"
     inkscape:document-units="mm"
     showgrid="false"
     inkscape:zoom="0.67024358"
     inkscape:cx="179.78538"
     inkscape:cy="306.60495"
     inkscape:window-width="1294"
     inkscape:window-height="704"
     inkscape:window-x="72"
     inkscape:window-y="27"
     inkscape:window-maximized="1"
     inkscape:current-layer="layer1"
     units="px"
     width="793.70081px"
     inkscape:snap-global="false"
     fit-margin-top="0"
     fit-margin-left="0"
     fit-margin-right="0"
     fit-margin-bottom="0" />
  <defs
     id="defs2" />
  <g
     inkscape:label="Layer 1"
     inkscape:groupmode="layer"
     id="layer1"
     transform="translate(-4.8092587,87.267349)">
    <g
       inkscape:label="Rendered Gears"
       transform="translate(33.174397,33.23924)"
       id="g1674">
      <path
         style="fill:none;stroke:#000000;stroke-width:0.264583"
         d="m 21.7406,-2.61318 1.8319,-0.22018 1.5549,0.19236 3.4859,1.53565 v 2.2107 L 25.1274,2.641 23.5725,2.83336 21.7406,2.61318 l -0.8167,3.84226 1.763,0.54394 1.3424,0.8082 2.5598,2.82072 -0.8992,2.0196 -3.809,-0.015 -1.4988,-0.4567 -1.584,-0.9462 -2.3088,3.1778 1.3894,1.2141 0.8975,1.2843 1.1913,3.618 -1.6429,1.4792 -3.4737,-1.5629 -1.1834,-1.0269 -1.0622,-1.5086 -3.40181,1.964 0.77549,1.6742 0.29762,1.5383 -0.38336,3.7898 -2.1025,0.6831 L 5.25307,24.7137 4.5896,23.2943 4.23293,21.484 0.32635,21.8946 0.35385,23.7395 0,25.2659 l -1.89161,3.3062 -2.19858,-0.2311 -1.16288,-3.6273 -0.02876,-1.5665 0.41046,-1.7989 -3.73584,-1.2138 -0.72525,1.6965 -0.94414,1.2505 -3.0728,2.251 -1.9145,-1.1053 0.413,-3.7867 0.6109,-1.4428 1.1066,-1.4764 -2.9191,-2.6284 -1.3526,1.2549 -1.3711,0.7584 -3.7227,0.8065 -1.2994,-1.7885 1.9174,-3.2913 1.145,-1.0696 1.6114,-0.8986 -1.5977,-3.58851 -1.7461,0.59625 -1.561,0.13514 -3.7289,-0.77735 -0.4596,-2.16239 3.0904,-2.22684 1.481,-0.51146 1.8376,-0.16549 v -3.9281 l -1.8376,-0.16549 -1.481,-0.51146 -3.0904,-2.22684 0.4596,-2.16239 3.7289,-0.77735 1.561,0.13514 1.7461,0.59625 1.5977,-3.58851 -1.6114,-0.8986 -1.145,-1.0696 -1.9174,-3.2913 1.2994,-1.7885 3.7227,0.8065 1.3711,0.7584 1.3526,1.2549 2.9191,-2.6284 -1.1066,-1.4764 -0.6109,-1.4428 -0.413,-3.7867 1.9145,-1.1053 3.0728,2.251 0.94414,1.2505 0.72525,1.6965 3.73584,-1.2138 -0.41046,-1.7989 0.02876,-1.5665 1.16288,-3.6273 2.19858,-0.2311 1.89161,3.3062 0.35385,1.5264 -0.0275,1.8449 3.90658,0.4106 0.35667,-1.8103 0.66347,-1.4194 2.53767,-2.8407 2.1025,0.6831 0.38336,3.7898 -0.29762,1.5383 -0.77549,1.6742 3.40181,1.964 1.0622,-1.5086 1.1834,-1.0269 3.4737,-1.5629 1.6429,1.4792 -1.1913,3.618 -0.8975,1.2843 -1.3894,1.2141 2.3088,3.1778 1.584,-0.9462 1.4988,-0.4567 3.809,-0.015 0.8992,2.0196 -2.5598,2.82072 -1.3424,0.8082 -1.763,0.54394 z"
         id="path1670" />
      <circle
         style="fill:none;stroke:#000000;stroke-width:0.264583"
         id="path1672"
         cx="0"
         cy="0"
         r="2.6458333" />
    </g>
    <g
       inkscape:label="Rendered Gears"
       transform="translate(71.602093,-33.405705)"
       id="g2076">
      <path
         style="fill:none;stroke:#000000;stroke-width:0.264583"
         d="m 47.0563,-3.16999 0.3206,-0.0216 3.0855,0.54697 3.4238,1.40266 v 2.48392 l -3.4238,1.40266 -3.0855,0.54697 -0.3206,-0.0216 -0.3693,3.51284 0.3182,0.04554 2.9044,1.17653 3.0572,2.08384 -0.5164,2.42966 -3.6405,0.6602 -3.1319,-0.1066 -0.3091,-0.0877 -1.0915,3.3593 0.3017,0.1107 2.5963,1.7546 2.5572,2.674 -1.0103,2.2692 -3.6982,-0.1112 -3.0413,-0.7553 -0.2841,-0.1502 -1.7661,3.059 0.2721,0.171 2.1747,2.2561 1.9454,3.1472 -1.46,2.0096 -3.5943,-0.8777 -2.8178,-1.3711 -0.2467,-0.206 -2.3635,2.625 0.2306,0.2238 1.6582,2.659 1.2485,3.4829 -1.8459,1.6621 -3.3333,-1.6058 -2.4711,-1.927 -0.1985,-0.2528 -2.8576,2.0762 0.179,0.2669 1.0691,2.9456 0.4972,3.6664 -2.1512,1.242 -2.9266,-2.2637 -2.0164,-2.3987 -0.1417,-0.2885 -3.2268,1.4367 0.1196,0.2982 0.4333,3.1036 -0.276,3.6896 -2.3623,0.7676 -2.392,-2.8227 -1.4737,-2.7656 -0.0785,-0.3116 -3.45506,0.7344 0.05499,0.3166 L 7.9049,49.9096 6.86779,53.4612 4.39748,53.7208 2.64462,50.4624 1.77813,47.451 1.7661,47.1298 h -3.5322 l -0.01203,0.3212 -0.86649,3.0114 -1.75286,3.2584 -2.47031,-0.2596 -1.03711,-3.5516 -0.22143,-3.1259 0.05499,-0.3166 -3.45506,-0.7344 -0.0785,0.3116 -1.4737,2.7656 -2.392,2.8227 -2.3623,-0.7676 -0.276,-3.6896 0.4333,-3.1036 0.1196,-0.2982 -3.2268,-1.4367 -0.1417,0.2885 -2.0164,2.3987 -2.9266,2.2637 -2.1512,-1.242 0.4972,-3.6664 1.0691,-2.9456 0.179,-0.2669 -2.8576,-2.0762 -0.1985,0.2528 -2.4711,1.927 -3.3333,1.6058 -1.8459,-1.6621 1.2485,-3.4829 1.6582,-2.659 0.2306,-0.2238 -2.3635,-2.625 -0.2467,0.206 -2.8178,1.3711 -3.5943,0.8777 -1.46,-2.0096 1.9454,-3.1472 2.1747,-2.2561 0.2721,-0.171 -1.7661,-3.059 -0.2841,0.1502 -3.0413,0.7553 -3.6982,0.1112 -1.0103,-2.2692 2.5572,-2.674 2.5963,-1.7546 0.3017,-0.1107 -1.0915,-3.3593 -0.3091,0.0877 -3.1319,0.1066 -3.6405,-0.6602 -0.5164,-2.42966 3.0572,-2.08384 2.9044,-1.17653 0.3182,-0.04554 -0.3693,-3.51284 -0.3206,0.0216 -3.0855,-0.54697 -3.4238,-1.40266 v -2.48392 l 3.4238,-1.40266 3.0855,-0.54697 0.3206,0.0216 0.3693,-3.51284 -0.3182,-0.04554 -2.9044,-1.17653 -3.0572,-2.08384 0.5164,-2.42966 3.6405,-0.6602 3.1319,0.1066 0.3091,0.0877 1.0915,-3.3593 -0.3017,-0.1107 -2.5963,-1.7546 -2.5572,-2.674 1.0103,-2.2692 3.6982,0.1112 3.0413,0.7553 0.2841,0.1502 1.7661,-3.059 -0.2721,-0.171 -2.1747,-2.2561 -1.9454,-3.1472 1.46,-2.0096 3.5943,0.8777 2.8178,1.3711 0.2467,0.206 2.3635,-2.625 -0.2306,-0.2238 -1.6582,-2.659 -1.2485,-3.4829 1.8459,-1.6621 3.3333,1.6058 2.4711,1.927 0.1985,0.2528 2.8576,-2.0762 -0.179,-0.2669 -1.0691,-2.9456 -0.4972,-3.6664 2.1512,-1.242 2.9266,2.2637 2.0164,2.3987 0.1417,0.2885 3.2268,-1.4367 -0.1196,-0.2982 -0.4333,-3.1036 0.276,-3.6896 2.3623,-0.7676 2.392,2.8227 1.4737,2.7656 0.0785,0.3116 3.45506,-0.7344 -0.05499,-0.3166 0.22143,-3.1259 1.03711,-3.5516 2.47031,-0.2596 1.75286,3.2584 0.86649,3.0114 0.01203,0.3212 h 3.5322 l 0.01203,-0.3212 0.86649,-3.0114 1.75286,-3.2584 2.47031,0.2596 1.03711,3.5516 0.22143,3.1259 -0.05499,0.3166 3.45506,0.7344 0.0785,-0.3116 1.4737,-2.7656 2.392,-2.8227 2.3623,0.7676 0.276,3.6896 -0.4333,3.1036 -0.1196,0.2982 3.2268,1.4367 0.1417,-0.2885 2.0164,-2.3987 2.9266,-2.2637 2.1512,1.242 -0.4972,3.6664 -1.0691,2.9456 -0.179,0.2669 2.8576,2.0762 0.1985,-0.2528 2.4711,-1.927 3.3333,-1.6058 1.8459,1.6621 -1.2485,3.4829 -1.6582,2.659 -0.2306,0.2238 2.3635,2.625 0.2467,-0.206 2.8178,-1.3711 3.5943,-0.8777 1.46,2.0096 -1.9454,3.1472 -2.1747,2.2561 -0.2721,0.171 1.7661,3.059 0.2841,-0.1502 3.0413,-0.7553 3.6982,-0.1112 1.0103,2.2692 -2.5572,2.674 -2.5963,1.7546 -0.3017,0.1107 1.0915,3.3593 0.3091,-0.0877 3.1319,-0.1066 3.6405,0.6602 0.5164,2.42966 -3.0572,2.08384 -2.9044,1.17653 -0.3182,0.04554 z"
         id="path2072" />
      <circle
         style="fill:none;stroke:#000000;stroke-width:0.264583"
         id="path2074"
         cx="0"
         cy="0"
         r="2.6458333" />
    </g>
  </g>
</svg>
